<?xml version="1.0" standalone="no"?>
<!DOCTYPE svg PUBLIC "-//W3C//DTD SVG 20010904//EN"
 "http://www.w3.org/TR/2001/REC-SVG-20010904/DTD/svg10.dtd">
<svg version="1.0" xmlns="http://www.w3.org/2000/svg"
 width="5000.000000pt" height="2000.000000pt" viewBox="0 0 5000.000000 2000.000000"
 preserveAspectRatio="xMidYMid meet">

<g transform="translate(0.000000,2000.000000) scale(0.100000,-0.100000)"
fill="#000000" stroke="none">
<path d="M21288 18292 c-37 -42 -80 -91 -95 -107 -15 -17 -77 -87 -138 -155
-117 -134 -115 -131 -255 -290 -51 -58 -127 -143 -170 -190 -42 -47 -128 -143
-190 -215 -62 -71 -146 -166 -185 -210 -103 -115 -240 -268 -395 -445 -74 -85
-142 -161 -150 -170 -20 -21 -228 -257 -260 -295 -14 -16 -48 -54 -76 -85 -28
-30 -66 -73 -86 -95 -19 -22 -75 -85 -124 -140 -49 -55 -107 -121 -129 -146
-34 -40 -87 -100 -291 -329 -17 -19 -73 -82 -125 -140 -52 -58 -106 -121 -120
-140 -15 -19 -51 -60 -80 -90 -30 -30 -117 -127 -194 -214 -77 -87 -145 -164
-150 -170 -6 -6 -42 -47 -80 -91 -38 -44 -99 -114 -136 -155 -65 -73 -112
-127 -354 -400 -65 -74 -142 -160 -170 -190 -27 -30 -66 -74 -86 -98 -20 -23
-45 -42 -54 -42 -20 0 -48 20 -184 129 -51 42 -105 85 -120 96 -14 11 -69 54
-121 96 -379 306 -446 359 -456 359 -14 0 -22 -8 -214 -206 -80 -82 -249 -255
-375 -384 -127 -129 -237 -244 -246 -255 -9 -11 -25 -27 -35 -36 -10 -9 -89
-87 -174 -175 -198 -204 -828 -850 -1075 -1104 -105 -107 -277 -283 -382 -390
-105 -107 -216 -220 -245 -251 -29 -30 -199 -205 -378 -388 -179 -184 -326
-342 -328 -352 -5 -28 20 -23 71 14 107 76 314 237 336 261 14 14 28 26 33 26
8 0 135 95 558 416 113 86 234 177 269 203 35 25 69 51 75 56 6 6 40 33 76 60
61 45 169 128 412 313 55 43 122 93 148 112 26 19 91 69 145 110 53 41 118 91
145 110 27 19 118 88 202 152 214 164 276 211 413 315 66 50 129 100 139 112
11 11 23 21 27 21 5 0 61 40 126 89 65 49 190 144 278 210 87 67 168 121 178
121 10 0 31 -7 45 -15 25 -13 198 -97 422 -202 52 -25 169 -81 260 -125 585
-283 784 -379 845 -404 33 -14 67 -30 75 -35 23 -13 218 -109 385 -189 83 -39
158 -79 168 -87 14 -14 17 -34 17 -132 0 -64 4 -177 10 -251 5 -74 15 -238 21
-365 6 -126 15 -302 20 -390 13 -226 28 -515 39 -760 5 -115 14 -257 19 -315
6 -58 10 -150 11 -206 0 -128 9 -194 26 -194 16 0 9 -20 189 515 35 105 114
336 175 515 61 179 124 366 140 415 16 50 84 250 150 445 66 195 161 474 210
620 49 146 139 409 198 585 60 176 116 340 125 365 8 25 27 83 41 130 15 47
31 94 36 105 10 24 168 486 180 530 5 17 40 122 79 235 39 113 89 261 112 330
22 69 44 134 49 145 22 49 160 475 160 493 0 12 5 24 10 27 6 3 10 13 10 21 0
8 9 33 19 57 10 23 57 157 105 297 47 140 98 293 114 340 16 47 41 123 56 170
15 47 32 93 37 102 5 10 9 25 9 33 0 8 4 23 10 33 12 20 88 246 131 387 17 55
44 134 60 175 25 66 55 155 132 385 11 33 23 64 28 69 10 12 46 -26 149 -159
47 -60 132 -169 190 -241 58 -73 125 -158 150 -190 25 -32 66 -82 93 -111 26
-29 47 -57 47 -61 0 -5 8 -17 18 -28 10 -10 37 -44 59 -74 23 -30 68 -87 100
-126 32 -40 83 -104 113 -144 30 -39 71 -90 90 -112 19 -23 44 -53 55 -69 23
-32 229 -293 336 -426 41 -50 90 -112 109 -137 40 -51 55 -56 80 -23 20 25
306 449 385 569 29 45 57 78 67 78 9 0 29 -15 44 -32 15 -18 68 -78 119 -133
105 -114 264 -289 445 -490 69 -76 154 -171 190 -210 36 -39 95 -104 132 -145
37 -41 92 -102 123 -135 31 -33 75 -82 98 -109 23 -27 76 -86 118 -130 42 -45
105 -113 140 -153 222 -250 264 -295 298 -323 22 -16 44 -30 50 -30 6 0 11 -6
11 -12 0 -7 14 -28 30 -47 17 -18 30 -40 30 -47 0 -7 79 -91 176 -186 96 -95
182 -187 189 -205 12 -28 102 -133 251 -293 28 -30 68 -75 90 -100 21 -25 65
-74 99 -110 33 -37 117 -129 186 -205 400 -443 538 -595 580 -636 20 -19 40
-42 45 -51 5 -9 29 -38 54 -65 25 -26 72 -77 105 -113 32 -36 74 -83 94 -105
20 -22 77 -85 126 -140 49 -55 110 -122 136 -150 25 -27 75 -82 110 -121 35
-39 145 -160 244 -268 99 -109 206 -228 239 -265 32 -36 82 -91 110 -121 28
-30 85 -93 126 -140 41 -46 83 -91 92 -100 9 -8 55 -59 101 -113 98 -112 134
-144 148 -130 9 9 -30 129 -51 158 -4 6 -27 55 -50 110 -23 55 -58 133 -76
173 -19 41 -34 76 -34 79 0 2 -15 37 -34 76 -19 40 -46 100 -60 135 -15 34
-40 92 -56 128 -17 35 -30 67 -30 69 0 4 -25 61 -82 185 -17 36 -38 85 -48
110 -10 25 -29 70 -43 100 -13 30 -39 89 -57 130 -18 41 -43 98 -55 125 -13
28 -65 145 -115 260 -50 116 -97 224 -105 240 -7 17 -43 98 -80 180 -36 83
-75 168 -85 190 -10 22 -44 100 -75 174 -31 74 -61 142 -65 150 -15 28 -60
131 -60 136 0 3 -16 39 -35 81 -19 41 -35 77 -35 79 0 3 -14 35 -31 72 -17 38
-37 82 -44 98 -8 17 -55 125 -105 240 -51 116 -105 239 -122 275 -50 109 -49
118 18 192 139 152 224 246 264 293 24 28 69 77 100 110 32 33 105 114 163
180 100 113 150 168 357 395 172 188 296 326 344 383 33 37 57 57 72 57 12 0
46 -21 75 -47 30 -27 67 -60 84 -75 37 -33 195 -171 340 -298 190 -166 287
-252 396 -350 121 -109 205 -181 227 -194 8 -5 40 -34 71 -64 51 -50 163 -150
306 -272 56 -48 332 -292 506 -447 36 -32 130 -114 208 -183 79 -69 227 -199
330 -290 103 -91 233 -205 290 -255 57 -49 129 -113 160 -141 31 -28 79 -71
106 -94 70 -60 172 -150 290 -256 56 -49 122 -105 148 -124 26 -18 47 -37 47
-40 0 -7 114 -110 264 -239 28 -24 85 -74 126 -111 41 -37 102 -90 135 -117
33 -28 71 -62 85 -77 34 -37 88 -69 105 -62 10 4 12 12 6 33 -11 36 -53 137
-98 233 -19 41 -48 109 -65 150 -16 41 -33 80 -38 85 -4 6 -20 42 -35 80 -15
39 -45 108 -66 153 -22 46 -39 86 -39 88 0 2 -18 42 -40 89 -22 47 -40 87 -40
90 0 2 -50 118 -111 257 -61 139 -125 287 -141 328 -17 41 -35 80 -39 86 -5 6
-26 53 -48 105 -21 52 -50 119 -64 149 -81 179 -98 248 -58 237 15 -4 259
-163 484 -317 12 -8 137 -90 277 -182 140 -92 274 -181 297 -198 24 -17 98
-67 165 -111 68 -45 136 -90 152 -101 16 -12 441 -296 945 -632 504 -336 928
-619 941 -629 69 -48 187 -124 203 -130 24 -9 38 -1 31 18 -6 14 -365 357
-522 499 -43 38 -118 108 -168 155 -49 47 -112 106 -140 130 -27 24 -83 76
-124 115 -41 39 -138 130 -215 200 -77 71 -178 166 -225 210 -47 45 -110 103
-140 130 -30 27 -98 90 -150 140 -53 50 -113 106 -135 125 -22 19 -91 82 -153
140 -62 58 -116 107 -120 109 -4 1 -60 53 -123 115 -64 63 -173 165 -242 228
-118 107 -300 276 -462 428 -38 36 -124 115 -190 176 -66 60 -154 142 -195
181 -70 67 -128 121 -225 208 -22 19 -45 34 -51 32 -12 -5 -228 -159 -359
-257 -44 -32 -91 -67 -105 -77 -14 -9 -114 -81 -222 -159 -109 -79 -203 -143
-209 -143 -15 0 -73 49 -375 315 -37 33 -79 69 -93 79 -14 11 -51 42 -81 70
-102 93 -238 206 -248 206 -6 0 -19 11 -29 24 -20 27 -84 84 -458 406 -138
118 -281 241 -319 275 -280 244 -405 352 -531 461 -49 42 -119 103 -155 134
-36 32 -81 70 -100 86 -19 16 -66 57 -105 93 -111 101 -95 104 -238 -45 -68
-71 -159 -168 -203 -215 -131 -142 -535 -571 -577 -614 -21 -22 -78 -83 -126
-135 -47 -52 -145 -155 -216 -230 -72 -74 -159 -166 -195 -205 -35 -38 -107
-115 -159 -170 -53 -55 -123 -130 -156 -165 -58 -63 -293 -312 -465 -492 -94
-99 -100 -101 -147 -40 -24 33 -91 112 -318 378 -33 39 -89 106 -125 149 -63
75 -162 192 -258 304 -26 30 -58 69 -72 87 -27 34 -237 283 -274 324 -12 14
-60 70 -106 125 -46 55 -107 127 -135 160 -29 33 -61 71 -72 85 -11 14 -52 61
-89 106 -38 44 -114 134 -169 199 -55 66 -118 140 -140 165 -22 26 -69 82
-105 125 -36 43 -83 99 -105 125 -22 26 -83 98 -135 161 -52 62 -115 135 -138
161 l-44 47 -116 -147 c-63 -81 -163 -207 -221 -281 -58 -73 -121 -153 -139
-177 -19 -26 -40 -44 -52 -44 -12 0 -60 47 -133 133 -63 72 -157 181 -208 240
-52 60 -124 144 -161 188 -36 43 -91 107 -121 142 -30 34 -101 116 -158 182
-56 66 -128 149 -158 184 -95 108 -142 163 -251 291 -266 312 -354 410 -370
410 -8 -1 -45 -35 -82 -78z"/>
<path d="M18567 8654 c-402 -62 -764 -271 -1021 -588 -212 -261 -338 -560
-376 -891 -60 -531 167 -1102 579 -1448 256 -216 512 -334 826 -382 144 -22
383 -20 526 5 922 155 1549 1084 1348 1995 -63 287 -218 586 -408 790 -191
206 -441 369 -701 456 -165 55 -320 79 -515 78 -93 -1 -210 -7 -258 -15z m566
-83 c410 -88 775 -335 1003 -677 320 -481 359 -1089 104 -1606 -278 -563 -876
-916 -1497 -885 -686 35 -1282 526 -1457 1198 -35 138 -48 244 -47 409 1 416
154 792 446 1098 247 260 550 420 904 477 128 21 417 14 544 -14z"/>
<path d="M27057 8659 c-416 -46 -753 -261 -879 -560 -47 -111 -61 -206 -55
-349 7 -150 25 -229 77 -335 84 -174 235 -288 469 -356 105 -30 271 -57 526
-84 434 -45 569 -73 733 -151 76 -35 108 -58 167 -116 112 -113 162 -233 172
-418 7 -138 -12 -235 -71 -355 -57 -115 -132 -206 -236 -284 -336 -253 -827
-312 -1234 -148 -189 75 -344 190 -432 318 -75 107 -97 166 -130 336 -4 19 -9
22 -37 16 -17 -3 -33 -7 -35 -8 -7 -6 22 -145 42 -201 54 -149 179 -306 321
-401 441 -296 1046 -295 1507 2 151 98 281 262 342 433 29 83 31 94 31 242 0
178 -12 235 -76 369 -31 66 -56 100 -112 155 -147 145 -361 219 -757 261 -490
53 -630 76 -772 129 -118 45 -189 89 -261 166 -106 111 -152 234 -164 430 -13
233 60 409 237 573 220 203 607 312 945 264 429 -61 715 -280 793 -607 17 -71
17 -71 46 -66 16 4 32 8 34 11 8 8 -19 116 -46 183 -52 133 -174 280 -301 366
-217 146 -544 218 -844 185z"/>
<path d="M30010 8650 c-304 -57 -543 -168 -771 -356 -253 -210 -463 -533 -549
-846 -93 -338 -74 -732 51 -1045 207 -521 627 -898 1146 -1027 168 -41 254
-50 460 -43 202 7 280 19 438 68 259 80 495 228 690 431 129 134 219 262 300
423 138 277 192 546 173 863 -31 524 -337 1027 -803 1320 -155 97 -407 188
-597 216 -146 22 -413 20 -538 -4z m531 -71 c646 -108 1166 -606 1299 -1243
90 -432 6 -869 -239 -1231 -237 -352 -603 -594 -1019 -675 -765 -148 -1544
312 -1792 1059 -91 274 -108 506 -60 796 90 532 483 1008 1002 1214 81 32 251
77 343 90 117 17 335 12 466 -10z"/>
<path d="M15750 8595 l0 -35 500 0 500 0 0 -950 c0 -1003 -3 -1070 -46 -1239
-147 -567 -646 -894 -1409 -924 l-60 -2 0 -35 0 -35 105 3 c466 14 879 173
1134 436 162 168 258 355 319 618 20 91 21 115 24 1146 l4 1052 -536 0 -535 0
0 -35z"/>
<path d="M20830 7000 l0 -1631 33 3 32 3 3 808 2 807 1020 0 1020 0 0 -810 0
-810 35 0 35 0 0 1630 0 1630 -35 0 -35 0 0 -785 0 -785 -1020 0 -1020 0 -2
783 -3 782 -32 3 -33 3 0 -1631z"/>
<path d="M23450 7001 l0 -1631 35 0 35 0 2 1552 3 1551 560 -809 c1751 -2533
1582 -2294 1621 -2294 l34 0 0 1630 0 1630 -35 0 -35 0 -2 -1557 -3 -1557
-567 820 c-312 450 -796 1150 -1075 1554 -483 699 -510 735 -541 738 l-32 3 0
-1630z"/>
<path d="M32300 7001 l0 -1631 35 0 35 0 2 1551 3 1552 317 -459 c1899 -2748
1822 -2639 1861 -2642 l37 -3 0 1630 0 1631 -35 0 -35 0 0 -1561 0 -1562 -767
1109 c-422 610 -907 1312 -1078 1559 -292 422 -313 450 -343 453 l-32 3 0
-1630z"/>
<path d="M15830 3374 c-267 -71 -464 -307 -489 -582 -14 -163 17 -315 91 -440
18 -31 67 -91 108 -132 204 -205 509 -245 798 -103 74 36 97 59 86 87 -11 28
-34 24 -127 -23 -109 -56 -191 -76 -302 -75 -274 1 -491 173 -561 444 -22 85
-22 244 1 330 54 208 217 373 420 425 138 35 314 10 454 -67 78 -42 105 -45
117 -13 4 9 -1 24 -11 35 -27 30 -154 88 -240 110 -95 24 -262 26 -345 4z"/>
<path d="M17916 3374 c-150 -36 -305 -159 -379 -301 -137 -262 -104 -622 78
-835 69 -82 176 -150 290 -184 90 -28 277 -26 370 3 204 64 354 227 417 450
28 101 30 293 4 398 -47 191 -167 347 -326 423 -47 22 -109 45 -138 51 -73 15
-245 12 -316 -5z m289 -69 c156 -33 289 -133 358 -271 162 -321 53 -735 -228
-869 -86 -41 -152 -55 -257 -55 -258 0 -456 158 -525 420 -24 89 -23 282 1
369 83 305 348 470 651 406z"/>
<path d="M22300 3371 c-147 -47 -227 -129 -251 -254 -19 -104 12 -205 84 -277
57 -56 97 -79 267 -145 244 -96 298 -130 347 -213 22 -38 27 -58 28 -116 0
-60 -4 -78 -27 -117 -52 -89 -162 -139 -302 -139 -141 0 -252 43 -355 137 -33
29 -66 53 -75 53 -9 0 -22 -12 -28 -26 -12 -26 -10 -30 52 -86 89 -82 199
-135 313 -150 216 -29 405 50 479 200 19 39 23 62 22 137 0 106 -21 159 -89
230 -51 52 -102 79 -285 150 -230 89 -290 127 -329 209 -27 54 -28 145 -2 202
37 82 142 139 274 150 123 11 238 -29 327 -112 49 -46 68 -52 88 -32 47 47
-78 158 -227 202 -75 22 -238 21 -311 -3z"/>
<path d="M34032 3370 c-106 -28 -207 -85 -287 -161 -126 -120 -192 -269 -202
-454 -16 -287 122 -535 359 -649 121 -58 180 -71 313 -71 126 1 202 17 312 69
120 57 113 37 113 317 0 146 -4 248 -10 260 -10 18 -23 19 -219 19 -178 0
-210 -2 -222 -16 -9 -11 -10 -20 -2 -32 9 -15 35 -17 192 -20 l181 -2 0 -214
0 -213 -67 -31 c-248 -114 -525 -71 -703 108 -181 182 -222 479 -101 725 140
283 498 393 809 249 58 -26 78 -31 93 -23 52 28 -4 81 -132 126 -104 36 -318
43 -427 13z"/>
<path d="M19887 3368 c-16 -8 -17 -59 -17 -659 0 -592 1 -650 16 -656 9 -3 24
-2 33 4 14 9 17 70 21 587 l5 578 429 -586 c274 -376 434 -586 445 -586 41 0
41 -1 41 667 0 616 -1 643 -19 652 -13 7 -23 7 -35 -2 -14 -11 -16 -68 -18
-592 l-3 -580 -430 587 c-236 323 -435 589 -441 592 -5 2 -18 0 -27 -6z"/>
<path d="M24026 3367 c-16 -12 -17 -46 -14 -482 3 -455 4 -472 25 -528 83
-219 314 -357 535 -319 160 28 295 130 366 279 l37 78 3 480 c3 439 1 481 -14
492 -11 8 -22 9 -35 3 -17 -10 -18 -38 -21 -478 l-3 -467 -32 -68 c-43 -89
-119 -169 -202 -210 -61 -30 -72 -32 -171 -32 -97 0 -110 2 -173 32 -85 40
-155 111 -199 200 l-33 68 -5 473 c-4 406 -7 474 -20 482 -20 13 -23 12 -44
-3z"/>
<path d="M26248 3369 c-17 -9 -18 -51 -18 -652 0 -487 3 -646 12 -655 17 -17
729 -17 746 0 18 18 14 46 -7 58 -13 6 -140 10 -345 10 l-326 0 0 609 c0 541
-2 611 -16 625 -18 19 -23 19 -46 5z"/>
<path d="M27978 3369 c-24 -13 -23 -46 1 -59 12 -6 104 -10 230 -10 l211 0 0
-614 c0 -659 -1 -647 50 -631 20 6 20 10 20 626 l0 619 214 0 c118 0 221 3
230 6 22 9 20 51 -3 64 -27 14 -929 13 -953 -1z"/>
<path d="M30090 3360 c-20 -20 -20 -31 -20 -646 0 -412 4 -632 10 -645 12 -21
40 -25 58 -7 9 9 12 168 12 655 0 630 0 643 -20 653 -15 8 -24 6 -40 -10z"/>
<path d="M31417 3368 c-16 -8 -17 -59 -17 -659 0 -592 1 -650 16 -656 9 -3 24
-2 33 4 14 9 17 70 21 587 l5 578 429 -586 c274 -376 434 -586 445 -586 41 0
41 -1 41 667 0 616 -1 643 -19 652 -13 7 -23 7 -35 -2 -14 -11 -16 -68 -18
-592 l-3 -580 -430 587 c-236 323 -435 589 -441 592 -5 2 -18 0 -27 -6z"/>
</g>
</svg>
