<?xml version="1.0" standalone="no"?>
<!DOCTYPE svg PUBLIC "-//W3C//DTD SVG 20010904//EN"
 "http://www.w3.org/TR/2001/REC-SVG-20010904/DTD/svg10.dtd">
<svg version="1.0" xmlns="http://www.w3.org/2000/svg"
 width="5000.000000pt" height="1502.000000pt" viewBox="0 0 5000.000000 1502.000000"
 preserveAspectRatio="xMidYMid meet">

<g transform="translate(0.000000,1502.000000) scale(0.100000,-0.100000)"
fill="#000000" stroke="none">
<path d="M11133 12743 c-62 -71 -102 -116 -303 -343 -37 -41 -104 -117 -151
-169 -46 -51 -113 -128 -148 -170 -35 -42 -91 -105 -125 -142 -34 -36 -75 -81
-91 -100 -17 -18 -80 -89 -140 -157 -61 -68 -130 -148 -155 -177 -25 -29 -117
-134 -205 -232 -88 -99 -223 -251 -300 -338 -77 -87 -145 -163 -151 -169 -20
-21 -230 -258 -279 -316 -66 -77 -412 -468 -484 -546 -31 -33 -65 -72 -76 -87
-12 -14 -43 -50 -71 -79 -27 -29 -70 -78 -94 -108 -24 -30 -72 -84 -106 -120
-34 -36 -82 -88 -106 -117 -48 -57 -166 -191 -237 -268 -25 -27 -61 -68 -80
-90 -19 -22 -66 -76 -106 -120 -40 -44 -92 -103 -116 -132 -47 -56 -160 -183
-243 -274 -28 -30 -76 -84 -106 -119 -30 -35 -64 -73 -75 -84 -11 -12 -46 -52
-78 -89 -32 -37 -64 -67 -71 -67 -11 0 -119 82 -256 195 -92 76 -501 404 -563
451 -45 34 -62 42 -75 35 -10 -5 -62 -56 -117 -113 -135 -141 -658 -678 -775
-797 -53 -53 -183 -186 -289 -296 -106 -110 -300 -308 -430 -440 -130 -132
-299 -305 -375 -385 -77 -80 -252 -260 -390 -400 -138 -141 -349 -357 -468
-480 -119 -124 -302 -312 -407 -419 -105 -107 -191 -201 -191 -208 0 -7 9 -13
19 -13 18 0 58 28 202 139 25 20 61 47 79 61 18 14 56 43 83 65 27 22 59 46
71 54 31 21 455 340 509 383 16 13 44 34 63 48 50 37 347 263 364 277 8 7 87
67 175 134 88 66 211 160 274 207 62 48 123 94 135 102 13 8 40 29 62 47 38
31 176 136 238 181 17 12 38 28 46 35 19 16 281 214 323 245 18 12 40 29 51
38 10 9 84 65 165 126 80 61 147 114 149 119 2 5 20 18 40 31 20 12 91 63 157
113 290 221 418 315 426 315 8 0 114 -49 344 -160 66 -32 167 -81 225 -108 98
-47 214 -102 555 -267 310 -149 383 -184 450 -216 39 -18 183 -87 321 -154
137 -68 259 -125 271 -129 46 -15 51 -32 56 -196 2 -85 9 -243 15 -350 6 -107
16 -283 22 -390 5 -107 15 -274 20 -370 6 -96 17 -296 25 -445 9 -148 20 -345
25 -437 6 -91 10 -209 10 -261 0 -224 34 -251 85 -67 9 36 23 79 30 95 8 17
43 118 79 225 35 107 135 402 221 655 86 253 163 483 172 510 8 28 19 59 24
70 4 11 45 128 89 260 133 397 278 826 300 890 11 33 25 74 31 90 11 33 151
449 170 505 7 19 15 44 20 55 4 11 20 61 35 110 15 50 31 97 36 105 4 8 29 80
54 160 26 80 52 159 59 175 7 17 25 68 40 115 15 47 33 101 40 120 7 19 60
177 118 350 59 173 142 421 185 550 44 129 85 255 92 280 8 25 21 63 31 85 9
22 63 176 118 342 56 166 107 319 115 340 7 21 26 76 41 123 15 47 31 94 36
105 4 11 31 90 59 175 28 85 55 164 60 175 11 26 56 171 65 210 3 16 15 47 25
70 10 22 48 130 85 240 36 110 70 204 75 208 13 14 48 -11 74 -51 13 -20 32
-46 42 -57 11 -11 32 -38 48 -60 17 -22 33 -42 36 -45 3 -3 19 -23 35 -45 17
-22 32 -42 36 -45 7 -7 164 -205 214 -270 22 -30 62 -78 88 -109 41 -47 185
-230 290 -369 16 -20 36 -46 45 -57 10 -11 30 -38 47 -60 16 -22 43 -56 60
-75 17 -19 38 -45 46 -57 8 -11 50 -65 94 -120 44 -54 107 -133 140 -176 33
-43 76 -97 95 -121 19 -24 62 -78 94 -120 45 -58 64 -76 80 -74 14 2 61 63
153 198 73 107 138 205 145 218 38 66 173 252 184 252 7 0 24 -15 39 -32 15
-18 57 -65 94 -104 36 -39 138 -151 226 -250 88 -98 192 -212 230 -254 39 -41
90 -98 114 -125 23 -28 64 -73 90 -100 25 -28 66 -73 90 -100 25 -28 90 -99
146 -160 56 -60 123 -135 150 -165 26 -30 75 -84 109 -120 34 -36 79 -86 101
-112 113 -132 309 -339 340 -358 19 -12 35 -27 35 -33 0 -7 14 -25 30 -41 17
-16 30 -36 30 -43 0 -8 79 -92 176 -186 97 -95 183 -187 190 -205 8 -18 38
-59 67 -91 29 -31 88 -97 132 -145 75 -83 108 -120 294 -328 41 -46 99 -110
130 -143 31 -33 180 -196 330 -362 150 -167 277 -303 281 -303 5 0 11 -8 15
-17 3 -10 33 -47 66 -83 34 -36 91 -99 128 -140 36 -41 91 -102 122 -135 31
-33 81 -88 110 -121 30 -34 182 -202 339 -374 157 -173 309 -341 339 -374 29
-34 79 -88 110 -121 31 -33 90 -98 130 -145 41 -47 87 -97 101 -112 15 -14 69
-74 120 -132 59 -68 100 -106 112 -106 24 0 20 22 -14 99 -11 25 -26 60 -34
76 -7 17 -42 97 -78 178 -37 82 -66 150 -66 152 0 4 -18 44 -87 192 -18 40
-33 75 -33 78 0 3 -21 51 -46 107 -25 57 -53 119 -61 138 -8 19 -29 64 -45
100 -17 36 -36 81 -43 100 -11 29 -106 246 -160 365 -8 16 -57 129 -110 250
-53 121 -107 244 -121 273 -13 29 -24 55 -24 57 0 2 -13 33 -29 67 -15 35 -45
101 -66 148 -21 47 -41 89 -46 95 -5 5 -9 16 -9 25 0 8 -7 29 -16 45 -9 17
-25 53 -36 80 -10 28 -32 77 -47 110 -15 33 -43 94 -61 135 -18 41 -48 108
-66 148 -19 41 -34 76 -34 79 0 6 -22 57 -55 128 -13 28 -65 145 -115 260 -49
116 -95 218 -100 227 -17 31 -60 141 -60 156 0 8 12 28 26 46 38 44 356 397
435 481 37 38 88 96 115 128 27 32 72 82 99 111 28 28 122 132 210 231 88 98
187 209 221 245 33 36 79 85 101 110 113 126 137 150 152 150 16 0 29 -11 130
-102 27 -24 72 -63 101 -87 29 -25 58 -50 64 -56 6 -5 45 -39 86 -75 41 -36
95 -84 120 -106 25 -23 61 -55 80 -70 19 -16 37 -31 40 -35 4 -5 73 -66 354
-313 38 -34 85 -75 104 -93 19 -18 43 -35 53 -38 11 -4 19 -10 19 -15 0 -7
224 -209 354 -320 33 -28 100 -87 232 -205 6 -5 44 -39 84 -75 41 -36 78 -70
84 -75 6 -6 23 -19 37 -31 14 -11 57 -47 95 -81 38 -34 78 -70 90 -80 12 -10
57 -51 102 -91 44 -40 93 -83 109 -95 15 -12 37 -31 49 -42 11 -11 90 -81 175
-155 84 -74 197 -173 250 -220 53 -47 145 -128 205 -180 60 -52 131 -116 159
-141 27 -25 63 -57 79 -70 16 -13 79 -68 140 -122 61 -54 156 -137 210 -185
54 -48 129 -114 165 -147 37 -33 131 -116 210 -185 79 -69 176 -153 215 -188
46 -41 78 -62 91 -60 34 5 22 44 -81 266 -19 41 -34 76 -34 79 0 3 -6 19 -14
36 -40 88 -106 238 -106 242 0 4 -77 176 -130 290 -15 33 -44 101 -65 150 -20
50 -52 124 -72 165 -19 41 -44 97 -55 125 -11 27 -30 73 -44 103 -13 29 -36
80 -50 115 -14 34 -37 87 -51 117 -52 114 -132 297 -157 359 -27 67 -34 121
-15 121 6 0 70 -39 142 -87 73 -48 140 -92 149 -98 28 -17 142 -93 153 -102 6
-5 136 -92 290 -194 154 -102 290 -192 301 -200 12 -8 95 -63 185 -124 90 -60
169 -113 174 -118 9 -7 196 -132 735 -490 80 -53 172 -115 205 -137 113 -77
186 -125 240 -160 74 -48 313 -207 350 -233 158 -112 553 -367 564 -365 33 7
15 32 -106 144 -70 65 -166 155 -213 200 -47 45 -121 115 -165 155 -44 41
-116 108 -160 149 -44 41 -129 120 -189 175 -60 55 -132 122 -160 149 -28 27
-100 94 -161 149 -60 55 -148 137 -195 182 -47 45 -134 126 -195 182 -60 55
-131 120 -156 144 -25 24 -65 62 -90 83 -24 22 -95 87 -157 145 -63 58 -120
110 -128 114 -8 5 -47 41 -87 81 -73 74 -194 187 -302 285 -33 29 -91 83 -130
120 -38 37 -133 125 -210 196 -77 71 -167 154 -200 185 -100 94 -343 320 -444
412 -53 49 -103 88 -111 88 -9 0 -65 -36 -125 -80 -182 -131 -333 -242 -419
-305 -45 -33 -134 -97 -198 -143 -65 -46 -120 -88 -123 -93 -13 -20 -49 -7
-98 34 -29 23 -97 81 -152 130 -55 48 -135 118 -179 155 -43 37 -99 85 -125
108 -25 22 -98 84 -161 136 -63 53 -128 108 -143 123 -122 111 -265 236 -347
304 -36 30 -67 57 -70 60 -3 4 -70 62 -150 131 -80 68 -165 142 -190 164 -25
23 -106 93 -180 156 -73 63 -159 138 -190 165 -31 28 -67 59 -81 70 -13 11
-89 77 -168 145 -79 69 -160 138 -180 155 -20 16 -75 64 -123 107 -48 43 -92
78 -97 78 -5 0 -107 -104 -228 -232 -120 -128 -266 -282 -324 -343 -58 -60
-130 -137 -160 -170 -29 -33 -97 -105 -150 -160 -52 -55 -131 -138 -175 -185
-99 -107 -323 -346 -564 -600 -102 -107 -210 -222 -240 -255 -30 -33 -102
-109 -160 -170 -58 -60 -150 -158 -204 -217 -55 -60 -106 -108 -115 -108 -9 0
-44 33 -77 73 -74 87 -180 213 -210 247 -68 79 -154 181 -189 223 -72 87 -118
142 -225 267 -58 67 -116 137 -130 154 -14 18 -46 57 -72 87 -26 30 -79 92
-118 139 -40 47 -93 110 -119 140 -26 30 -96 114 -156 185 -60 72 -111 132
-115 135 -3 3 -25 30 -50 60 -25 30 -124 148 -220 261 -96 113 -202 238 -235
278 -33 40 -91 110 -130 155 -38 45 -90 106 -115 136 -97 117 -172 200 -179
200 -4 0 -57 -64 -118 -142 -61 -79 -143 -183 -182 -233 -39 -49 -102 -129
-139 -177 -45 -59 -74 -87 -88 -87 -23 -1 -41 17 -179 179 -44 52 -141 164
-215 249 -75 86 -146 170 -159 186 -12 17 -39 48 -59 70 -21 22 -50 56 -66 75
-16 19 -52 62 -81 95 -29 33 -81 93 -116 133 -35 41 -80 93 -99 116 -19 24
-91 108 -160 186 -69 78 -136 157 -149 174 -14 17 -47 56 -75 87 -28 30 -60
66 -70 80 -54 67 -122 139 -132 139 -7 0 -43 -35 -81 -77z"/>
<path d="M30560 10950 c-377 -69 -694 -246 -943 -527 -441 -497 -555 -1172
-298 -1777 172 -406 504 -737 906 -901 331 -137 754 -154 1110 -46 114 35 326
137 432 208 350 235 609 620 703 1042 131 589 -81 1220 -545 1619 -216 185
-457 307 -730 369 -155 35 -478 42 -635 13z m598 -79 c490 -108 889 -420 1107
-866 259 -526 207 -1157 -132 -1635 -83 -116 -250 -284 -362 -364 -353 -252
-803 -358 -1198 -281 -209 40 -438 133 -603 244 -285 192 -511 485 -624 810
-68 194 -80 278 -80 526 0 187 4 234 22 315 112 502 434 911 887 1126 122 58
299 115 415 134 41 6 82 13 90 15 8 2 98 2 200 0 139 -3 208 -9 278 -24z"/>
<path d="M39083 10959 c-206 -21 -450 -108 -597 -213 -108 -77 -208 -192 -260
-297 -69 -141 -81 -198 -80 -369 2 -237 56 -391 182 -518 177 -177 390 -240
1022 -302 577 -56 805 -179 910 -490 31 -93 39 -270 15 -376 -73 -337 -388
-588 -830 -664 -239 -41 -482 -15 -703 75 -302 123 -489 323 -541 580 l-18 90
-34 -3 c-19 -2 -35 -5 -37 -7 -2 -1 6 -46 17 -100 50 -247 219 -448 486 -580
218 -108 416 -151 655 -142 163 6 258 23 410 73 290 97 510 277 615 507 51
111 68 195 67 327 -2 295 -132 522 -364 634 -160 77 -299 109 -636 146 -308
33 -432 50 -535 71 -398 81 -591 283 -613 644 -29 463 356 808 946 850 335 24
721 -117 885 -323 75 -95 155 -269 155 -339 0 -24 9 -27 48 -17 29 8 28 28 -3
128 -112 365 -476 601 -950 620 -66 3 -162 0 -212 -5z"/>
<path d="M42110 10964 c-14 -3 -72 -14 -129 -25 -504 -100 -940 -444 -1166
-923 -221 -465 -217 -987 9 -1451 244 -497 704 -839 1240 -921 121 -18 353
-18 485 1 436 64 822 293 1087 647 335 448 428 1009 254 1531 -192 574 -656
991 -1245 1119 -69 15 -139 20 -300 23 -115 2 -221 1 -235 -1z m534 -98 c554
-127 993 -523 1170 -1057 137 -412 104 -856 -90 -1235 -187 -365 -491 -635
-877 -778 -390 -145 -853 -119 -1227 69 -445 224 -752 620 -863 1112 -19 85
-22 128 -22 323 0 200 3 237 23 329 31 138 72 252 138 386 77 154 169 280 309
421 252 253 551 402 920 458 17 2 113 3 215 1 159 -2 202 -6 304 -29z"/>
<path d="M27770 10895 l0 -35 500 0 500 0 0 -972 c0 -1070 0 -1077 -61 -1273
-133 -429 -478 -716 -988 -820 -134 -27 -289 -45 -392 -45 l-69 0 0 -41 0 -42
113 7 c260 16 452 55 647 133 201 80 334 166 470 303 164 165 263 355 323 615
20 87 21 122 24 1148 l4 1057 -536 0 -535 0 0 -35z"/>
<path d="M32850 9301 l0 -1631 35 0 35 0 0 810 0 810 1020 0 1020 0 0 -811 0
-810 38 3 37 3 0 1625 0 1625 -35 0 -35 0 -3 -782 -2 -783 -1020 0 -1020 0 -2
783 -3 782 -32 3 -33 3 0 -1630z"/>
<path d="M35470 9300 l0 -1630 35 0 35 0 0 1553 c1 1468 2 1551 18 1531 9 -11
494 -710 1076 -1552 l1059 -1532 39 0 38 0 0 1630 0 1630 -35 0 -35 0 -2
-1562 -3 -1563 -1080 1562 c-1057 1528 -1081 1562 -1112 1563 l-33 0 0 -1630z"/>
<path d="M44320 9300 l0 -1630 35 0 35 0 0 1552 c0 1313 2 1550 14 1538 7 -8
492 -707 1076 -1553 l1063 -1538 36 3 36 3 3 1628 2 1627 -35 0 -35 0 -2
-1562 -3 -1563 -95 137 c-53 75 -539 778 -1080 1562 -964 1395 -986 1425
-1017 1426 l-33 0 0 -1630z"/>
<path d="M27842 5671 c-116 -34 -191 -79 -282 -171 -135 -135 -188 -256 -197
-451 -7 -146 11 -235 73 -360 101 -201 302 -336 530 -355 97 -8 199 8 310 48
146 52 202 102 158 139 -13 11 -29 6 -102 -33 -114 -61 -193 -81 -312 -82
-164 0 -290 52 -406 168 -118 118 -174 259 -174 437 0 222 90 402 258 512 102
67 169 89 292 95 130 6 199 -10 325 -73 50 -25 98 -45 107 -45 24 0 33 38 14
59 -24 26 -105 68 -188 98 -100 35 -309 43 -406 14z"/>
<path d="M29940 5674 c-311 -81 -492 -376 -459 -748 16 -172 74 -301 189 -417
89 -90 180 -139 310 -165 315 -63 611 104 715 403 51 145 57 330 17 478 -61
227 -232 400 -444 450 -80 19 -256 18 -328 -1z m291 -68 c247 -53 411 -265
426 -551 20 -376 -207 -645 -544 -645 -159 0 -272 42 -377 141 -119 111 -179
267 -178 464 0 191 54 337 168 451 126 127 317 180 505 140z"/>
<path d="M34317 5670 c-117 -37 -205 -117 -238 -218 -17 -53 -7 -189 18 -237
50 -94 127 -144 375 -240 159 -62 223 -99 272 -156 73 -86 75 -217 4 -303 -16
-19 -59 -50 -95 -68 -58 -28 -79 -33 -163 -36 -153 -6 -266 35 -372 135 -47
45 -62 54 -82 49 -57 -14 -39 -60 52 -131 146 -116 330 -160 500 -120 129 31
213 91 262 187 24 50 30 74 30 128 0 191 -90 288 -355 386 -223 83 -327 149
-361 229 -21 52 -18 141 7 193 69 142 324 195 503 105 27 -14 70 -45 96 -69
49 -46 68 -52 88 -32 46 46 -68 153 -212 197 -90 28 -245 28 -329 1z"/>
<path d="M46052 5670 c-114 -31 -207 -84 -293 -171 -63 -62 -85 -93 -122 -170
-69 -144 -88 -261 -68 -413 36 -269 201 -469 456 -553 68 -22 98 -26 205 -27
105 -1 137 3 200 23 78 24 155 60 203 93 l27 19 0 253 c0 183 -3 255 -12 264
-9 9 -71 12 -220 12 -188 0 -208 -2 -217 -18 -6 -11 -6 -24 0 -35 9 -15 30
-17 189 -17 l180 0 0 -214 0 -213 -67 -31 c-114 -51 -183 -65 -308 -59 -229
10 -399 117 -494 309 -118 237 -81 530 89 711 179 191 462 238 722 120 64 -29
80 -33 93 -23 42 35 -8 82 -136 127 -64 23 -93 27 -214 30 -115 2 -153 -1
-213 -17z"/>
<path d="M31907 5668 c-16 -8 -17 -59 -17 -658 0 -623 1 -649 19 -655 10 -3
26 -3 35 1 14 5 16 60 18 587 l3 582 425 -582 c234 -320 432 -585 441 -588 9
-3 24 -3 33 1 15 6 16 63 16 655 0 615 -1 649 -18 658 -47 25 -47 30 -52 -589
l-5 -581 -429 585 c-236 322 -434 587 -441 589 -6 3 -19 1 -28 -5z"/>
<path d="M36046 5664 c-14 -14 -16 -68 -16 -452 0 -354 3 -449 15 -501 58
-244 302 -411 545 -374 204 32 377 202 409 403 6 38 11 240 11 487 0 370 -2
423 -16 437 -18 18 -23 19 -44 6 -13 -8 -16 -76 -20 -482 l-5 -473 -32 -66
c-43 -86 -115 -159 -200 -201 -64 -31 -74 -33 -173 -33 -98 0 -110 2 -170 32
-97 48 -171 127 -216 233 -18 42 -19 77 -22 510 -2 420 -4 466 -19 478 -22 16
-28 15 -47 -4z"/>
<path d="M38266 5664 c-14 -14 -16 -87 -16 -653 0 -482 3 -640 12 -649 9 -9
105 -12 369 -12 197 0 364 3 373 6 22 9 20 51 -3 64 -13 6 -140 10 -345 10
l-326 0 0 615 c0 597 -1 615 -19 625 -25 13 -27 13 -45 -6z"/>
<path d="M39996 5664 c-21 -21 -20 -41 3 -54 12 -6 104 -10 230 -10 l211 0 0
-613 c0 -463 3 -616 12 -625 18 -18 46 -14 58 7 6 13 10 227 10 625 l0 606
214 0 c182 0 217 2 230 16 9 8 16 19 16 24 0 5 -7 16 -16 24 -14 14 -71 16
-484 16 -413 0 -470 -2 -484 -16z"/>
<path d="M42118 5669 c-17 -9 -18 -51 -18 -659 0 -623 1 -649 19 -655 26 -8
50 4 56 29 3 11 4 302 3 645 -3 611 -3 624 -23 637 -14 9 -25 10 -37 3z"/>
<path d="M43437 5668 c-16 -8 -17 -59 -17 -658 0 -623 1 -649 19 -655 10 -3
26 -3 35 1 14 5 16 60 18 587 l3 582 425 -582 c234 -320 432 -585 441 -588 9
-3 24 -3 33 1 15 6 16 63 16 655 0 615 -1 649 -18 658 -47 25 -47 30 -52 -589
l-5 -581 -429 585 c-236 322 -434 587 -441 589 -6 3 -19 1 -28 -5z"/>
</g>
</svg>
