<?xml version="1.0" standalone="no"?>
<!DOCTYPE svg PUBLIC "-//W3C//DTD SVG 20010904//EN"
 "http://www.w3.org/TR/2001/REC-SVG-20010904/DTD/svg10.dtd">
<svg version="1.0" xmlns="http://www.w3.org/2000/svg"
 width="5000.000000pt" height="2000.000000pt" viewBox="0 0 5000.000000 2000.000000"
 preserveAspectRatio="xMidYMid meet">

<g transform="translate(0.000000,2000.000000) scale(0.100000,-0.100000)"
fill="#000000" stroke="none">
<path d="M21366 18460 c-3 -19 -15 -34 -31 -42 -14 -6 -25 -15 -25 -19 0 -5
-13 -15 -30 -24 -16 -9 -30 -21 -30 -27 0 -7 -9 -21 -20 -33 -11 -11 -43 -48
-70 -82 -28 -34 -64 -67 -80 -75 -23 -10 -32 -22 -38 -53 -5 -27 -15 -43 -29
-50 -12 -5 -26 -19 -32 -32 -6 -13 -18 -23 -26 -23 -9 0 -20 -11 -25 -24 -5
-13 -18 -27 -29 -31 -12 -3 -21 -12 -21 -20 0 -7 -11 -22 -24 -32 -13 -10 -26
-28 -30 -40 -7 -23 -116 -123 -133 -123 -6 0 -27 -33 -48 -72 -21 -40 -43 -76
-49 -80 -6 -4 -28 -8 -48 -8 -38 0 -38 0 -38 -40 0 -29 -7 -48 -27 -71 -44
-50 -97 -99 -107 -99 -14 0 -75 -69 -91 -104 -19 -38 -69 -91 -112 -116 -21
-12 -33 -28 -33 -41 0 -12 -35 -56 -91 -112 -102 -104 -108 -111 -134 -152
-28 -45 -79 -94 -115 -109 -35 -14 -56 -44 -90 -131 -5 -14 -17 -28 -25 -32
-14 -5 -51 -40 -110 -105 -11 -13 -25 -34 -32 -49 -6 -15 -23 -35 -38 -45 -14
-11 -38 -29 -52 -41 -14 -12 -33 -25 -42 -28 -9 -3 -22 -17 -29 -32 -28 -66
-60 -114 -97 -147 -47 -43 -39 -35 -117 -117 -35 -36 -73 -71 -85 -78 -13 -6
-23 -18 -23 -26 0 -8 -8 -20 -18 -27 -11 -7 -27 -30 -36 -50 -10 -21 -35 -53
-56 -72 -21 -19 -41 -44 -45 -56 -4 -11 -18 -25 -31 -30 -13 -5 -24 -15 -24
-21 0 -6 -12 -23 -26 -38 -101 -104 -174 -183 -183 -199 -19 -35 -83 -107
-107 -120 -13 -7 -33 -31 -45 -54 -12 -23 -48 -66 -81 -97 -33 -31 -68 -64
-77 -74 -16 -19 -112 -114 -183 -182 -20 -19 -40 -45 -43 -57 -18 -54 -117
-178 -144 -178 -6 0 -11 -4 -11 -10 0 -8 -24 -34 -102 -107 -7 -7 -24 -27 -38
-43 -14 -17 -34 -41 -46 -53 -12 -12 -29 -36 -38 -54 -9 -18 -32 -44 -52 -59
-19 -15 -41 -42 -49 -60 -7 -17 -23 -35 -34 -39 -12 -3 -21 -12 -21 -18 0 -12
-15 -30 -82 -94 -60 -58 -77 -75 -123 -123 -65 -67 -80 -80 -93 -80 -7 0 -18
-11 -24 -25 -15 -33 -77 -51 -121 -35 -18 6 -76 55 -134 115 -80 82 -109 105
-129 105 -27 0 -70 36 -191 158 -35 36 -59 52 -77 52 -19 0 -53 27 -131 104
-109 107 -134 121 -198 109 -23 -5 -27 -10 -27 -38 0 -29 -22 -55 -190 -226
-105 -107 -193 -197 -198 -201 -92 -88 -817 -818 -892 -899 -191 -208 -314
-330 -338 -336 -13 -3 -31 -22 -43 -45 -15 -29 -31 -45 -60 -56 -22 -8 -41
-24 -45 -36 -7 -22 -62 -76 -79 -76 -5 -1 -26 -19 -45 -42 -19 -22 -72 -78
-117 -125 -45 -46 -83 -87 -85 -91 -2 -4 -24 -25 -50 -47 -37 -31 -48 -46 -48
-69 0 -22 -10 -38 -42 -65 -23 -20 -55 -41 -72 -47 -23 -8 -32 -18 -34 -39 -3
-22 -41 -66 -157 -179 -84 -83 -159 -156 -167 -162 -7 -7 -98 -99 -201 -205
-161 -167 -211 -218 -267 -274 -5 -5 -45 -47 -88 -92 -43 -46 -83 -83 -90 -83
-7 0 -12 -11 -12 -25 0 -24 2 -25 64 -25 62 0 64 1 113 49 28 27 75 63 106 81
31 17 79 53 106 80 27 26 63 51 79 55 19 4 58 34 104 79 42 42 99 87 136 106
35 18 87 57 115 85 31 31 65 55 83 59 21 5 59 34 108 83 69 68 79 75 106 70
24 -5 32 -2 41 16 17 31 121 137 135 137 6 0 18 7 25 17 8 9 30 23 49 32 38
17 48 25 137 112 32 31 69 60 82 64 36 11 82 45 130 98 24 26 49 47 55 47 16
0 124 79 167 122 40 40 104 83 138 93 14 4 46 31 73 60 28 31 59 55 75 58 16
3 63 39 111 85 65 61 89 78 106 75 18 -4 40 12 103 76 71 72 85 81 117 81 24
0 36 5 36 14 0 8 22 31 49 51 27 21 59 50 70 66 11 15 34 30 52 34 20 5 56 33
103 81 62 63 78 74 107 74 27 1 41 9 69 42 32 37 64 70 131 133 14 13 55 39
90 58 35 18 87 57 115 85 44 45 56 52 91 52 26 0 50 -8 73 -25 19 -14 38 -25
42 -25 24 0 158 -72 168 -90 7 -13 21 -20 40 -20 34 0 136 -43 165 -69 11 -10
37 -24 58 -31 21 -6 43 -20 50 -31 6 -10 19 -19 28 -19 25 0 149 -49 180 -71
15 -10 36 -19 46 -19 10 0 33 -13 50 -29 17 -15 45 -31 63 -34 36 -8 86 -30
178 -82 35 -19 73 -35 84 -35 11 0 41 -11 67 -24 44 -23 101 -49 206 -96 28
-12 64 -29 80 -38 92 -50 162 -82 178 -82 10 0 34 -12 53 -26 46 -35 141 -84
164 -84 10 0 31 -11 47 -24 15 -13 45 -31 66 -40 22 -9 55 -29 76 -45 l37 -30
13 -145 c11 -117 11 -152 1 -176 -15 -36 -9 -94 19 -200 17 -61 21 -107 21
-240 0 -106 6 -190 15 -235 19 -89 19 -129 0 -145 -23 -19 -19 -127 6 -201 24
-69 22 -138 -5 -168 -12 -13 -16 -39 -16 -109 0 -83 2 -93 26 -122 55 -64 86
-294 48 -348 -12 -17 -14 -36 -10 -75 4 -29 8 -143 9 -254 l2 -203 48 0 c26 0
47 1 48 3 0 1 4 48 8 105 6 81 12 108 29 131 12 16 28 55 36 88 7 32 24 83 36
113 12 30 24 64 27 75 2 11 9 29 14 40 4 11 15 38 23 60 49 134 65 177 74 188
5 7 12 37 16 67 8 67 24 120 42 140 7 9 18 38 24 65 6 27 20 64 31 81 10 17
19 45 19 61 0 29 26 119 40 138 4 6 13 35 19 66 7 31 21 65 31 74 12 10 20 31
20 48 0 16 9 45 21 63 11 19 29 75 39 125 10 50 23 96 29 103 6 7 16 36 22 65
11 55 71 185 89 196 5 3 10 18 10 33 0 50 92 347 130 421 16 31 34 85 40 119
11 64 22 94 66 185 13 27 24 61 24 77 0 28 19 91 44 145 8 17 18 48 22 70 3
22 13 53 21 69 8 16 22 51 30 79 8 28 23 66 34 86 10 20 19 46 19 58 0 12 4
24 9 28 5 3 15 31 21 63 6 31 24 82 40 112 15 30 31 75 35 100 4 25 15 63 25
85 10 22 23 69 30 105 7 36 25 92 40 125 15 33 31 78 35 100 4 22 10 45 14 50
4 6 13 28 20 50 7 22 19 54 26 70 60 137 75 177 75 202 0 40 19 101 34 110 7
5 18 41 25 82 6 41 18 86 25 100 8 14 22 49 31 76 10 28 23 57 30 65 7 8 15
39 18 69 4 29 15 69 27 88 11 19 20 43 20 54 0 11 11 31 25 45 14 14 25 37 25
52 0 23 24 120 59 247 5 17 22 60 39 96 17 36 45 115 62 175 18 60 36 114 40
119 5 6 13 30 19 55 12 47 37 110 76 195 13 28 28 79 35 115 7 35 20 81 31
102 10 20 19 46 19 57 0 11 4 22 9 25 5 3 12 22 15 41 8 40 70 232 90 279 8
17 19 51 26 76 6 25 24 72 39 105 15 33 31 84 34 114 4 29 15 72 26 95 11 22
23 55 27 71 4 17 17 50 30 75 13 25 24 56 24 70 1 14 9 41 20 60 10 19 23 44
28 55 5 11 19 28 30 38 20 19 21 18 66 -27 25 -25 46 -54 46 -65 0 -12 17 -35
37 -53 20 -18 42 -40 49 -48 7 -8 34 -40 59 -70 26 -30 55 -73 66 -95 10 -22
30 -49 45 -60 51 -39 100 -94 117 -132 11 -26 36 -56 127 -151 14 -15 32 -41
39 -58 7 -17 32 -51 57 -75 24 -24 44 -49 44 -56 0 -8 27 -43 60 -78 33 -35
60 -70 60 -76 0 -7 9 -21 20 -33 51 -53 80 -87 80 -96 0 -6 7 -10 15 -10 8 0
20 -10 26 -22 7 -13 25 -36 41 -51 15 -16 28 -34 28 -41 0 -7 11 -23 25 -36
14 -13 25 -29 25 -36 0 -6 11 -19 25 -28 14 -9 25 -21 25 -27 0 -6 12 -23 28
-38 42 -43 73 -83 86 -111 6 -14 19 -31 28 -38 10 -7 18 -18 18 -24 0 -5 12
-23 28 -38 45 -47 116 -130 131 -155 8 -13 25 -28 38 -34 20 -9 29 -7 59 16
18 16 34 34 34 41 0 6 8 20 19 31 10 10 24 35 31 55 6 20 20 42 29 48 10 7 22
24 26 38 9 30 63 101 131 175 12 13 24 40 28 59 4 22 16 42 31 52 15 10 25 26
25 41 0 33 42 73 77 73 34 0 46 -8 62 -37 6 -13 18 -23 25 -23 15 0 86 -74 86
-89 0 -5 8 -12 18 -16 11 -3 24 -17 30 -30 6 -14 18 -25 26 -25 7 0 21 -11 30
-25 9 -14 23 -25 31 -25 7 0 16 -8 20 -18 3 -11 17 -24 30 -30 14 -7 25 -20
25 -31 0 -11 9 -23 20 -26 11 -3 20 -11 20 -16 0 -5 15 -25 33 -43 51 -54 79
-89 90 -114 6 -13 25 -29 43 -37 19 -8 44 -32 60 -57 15 -23 33 -49 41 -56 7
-7 13 -19 13 -25 0 -14 74 -77 89 -77 6 0 13 -11 17 -25 4 -15 13 -25 24 -25
11 0 22 -12 29 -30 5 -16 17 -30 26 -30 9 0 18 -8 22 -17 8 -22 62 -76 91 -92
12 -6 22 -18 22 -26 0 -7 9 -17 20 -20 11 -4 27 -20 35 -36 9 -16 20 -29 25
-29 6 0 16 -21 22 -46 9 -31 20 -50 35 -57 12 -5 24 -18 26 -28 3 -11 14 -19
24 -19 23 0 83 -60 83 -83 0 -9 5 -17 11 -17 14 0 99 -85 99 -99 0 -6 7 -11
16 -11 16 0 94 -75 94 -90 0 -5 9 -12 20 -15 11 -3 22 -16 26 -29 3 -12 15
-26 27 -31 12 -6 23 -21 25 -35 2 -14 12 -34 22 -45 10 -11 23 -32 29 -47 9
-23 17 -28 45 -28 26 0 44 -9 75 -38 23 -21 41 -42 41 -46 0 -5 14 -24 30 -43
17 -18 30 -44 30 -57 0 -16 7 -26 23 -29 30 -8 74 -45 187 -158 126 -127 160
-169 160 -196 0 -16 6 -23 20 -23 13 0 22 -9 26 -25 3 -14 19 -32 35 -41 16
-8 29 -19 29 -24 0 -5 10 -10 23 -12 16 -2 23 -11 25 -31 2 -15 9 -27 15 -26
23 3 40 -1 34 -7 -13 -13 14 -44 38 -44 l25 0 0 509 0 509 -32 5 c-19 2 -36 0
-40 -7 -4 -6 -8 -7 -8 -2 0 5 -7 3 -15 -4 -8 -6 -13 -17 -12 -23 3 -16 -62
-16 -79 0 -8 8 -14 19 -14 24 0 5 -12 12 -27 15 -45 12 -82 56 -89 107 -5 37
-11 47 -28 49 -13 2 -22 12 -24 26 -2 12 -9 22 -16 22 -22 0 -76 31 -76 43 0
13 -38 57 -68 79 -33 24 -52 62 -52 103 0 40 -1 41 -42 51 -32 7 -46 16 -56
37 -8 16 -20 31 -28 34 -8 3 -14 11 -14 19 0 8 -4 14 -10 14 -5 0 -10 23 -10
50 0 55 -4 59 -32 33 -25 -23 -50 -7 -63 40 -11 40 -47 82 -85 100 -18 9 -27
24 -34 55 -7 31 -14 42 -28 42 -10 0 -22 10 -27 24 -5 13 -19 26 -30 29 -14 3
-21 13 -21 30 0 19 -6 26 -22 29 -13 2 -24 11 -26 22 -4 21 -66 86 -82 86 -13
0 -30 43 -30 76 0 15 -6 24 -16 24 -31 0 -74 35 -89 72 -8 21 -21 38 -29 38
-14 0 -26 21 -26 45 0 15 -131 151 -172 177 -14 10 -31 33 -38 52 -6 19 -20
38 -30 41 -11 3 -29 26 -42 51 -12 25 -35 55 -50 66 -19 13 -30 31 -34 58 -5
32 -11 39 -35 44 -37 7 -68 39 -76 76 -3 17 -12 30 -20 30 -22 0 -93 74 -93
98 0 11 -22 43 -50 72 -27 28 -52 60 -55 71 -4 10 -12 19 -19 19 -20 0 -156
147 -156 169 0 26 -50 101 -68 101 -20 0 -72 58 -72 81 0 12 -12 24 -33 33
-35 14 -77 59 -77 82 0 17 -34 18 -48 2 -5 -7 -13 -26 -16 -43 -7 -34 -69
-105 -92 -105 -8 0 -14 -7 -14 -15 0 -8 -9 -23 -21 -33 -11 -9 -39 -47 -61
-84 -22 -37 -48 -70 -58 -73 -10 -3 -21 -19 -25 -35 -3 -16 -31 -53 -61 -83
-30 -31 -54 -59 -54 -65 0 -5 -9 -17 -20 -27 -11 -10 -20 -24 -20 -31 0 -8
-11 -21 -25 -30 -23 -15 -27 -15 -58 5 -18 11 -42 38 -53 58 -10 21 -23 40
-29 42 -18 7 -95 89 -95 100 0 6 -7 11 -15 11 -9 0 -20 11 -25 25 -5 14 -21
30 -35 35 -14 5 -25 16 -25 23 0 8 -9 22 -19 31 -11 10 -23 31 -26 46 -3 16
-19 42 -36 59 -16 17 -29 35 -29 41 0 5 -5 10 -12 10 -7 0 -32 22 -57 48 -26
27 -56 54 -68 61 -13 6 -23 18 -23 25 0 8 -8 16 -18 18 -16 5 -82 121 -82 145
0 5 -11 15 -24 21 -13 6 -27 20 -31 31 -3 12 -11 21 -17 21 -14 0 -83 70 -91
93 -3 9 -12 17 -20 17 -17 0 -87 76 -87 95 0 8 -12 25 -26 37 -29 26 -79 76
-99 98 -7 8 -19 29 -26 45 -14 31 -84 105 -99 105 -5 0 -11 9 -15 19 -3 10
-15 21 -25 24 -11 3 -23 14 -27 25 -5 11 -27 42 -51 69 -52 58 -88 108 -103
146 -6 15 -17 27 -24 27 -21 0 -95 78 -95 100 0 15 -7 20 -29 20 -24 0 -30 -5
-35 -30z m4564 -3850 c0 -5 -5 -10 -11 -10 -5 0 -7 5 -4 10 3 6 8 10 11 10 2
0 4 -4 4 -10z"/>
<path d="M25960 14673 c0 -7 0 -15 0 -18 0 -13 15 -4 21 13 5 13 3 19 -7 19
-8 0 -14 -6 -14 -14z"/>
<path d="M18567 8654 c-390 -60 -752 -264 -1001 -563 -304 -365 -444 -811
-395 -1259 53 -497 314 -934 729 -1223 191 -134 429 -227 675 -264 144 -22
383 -20 526 5 688 116 1236 667 1360 1369 29 160 29 401 0 562 -94 533 -444
999 -926 1230 -232 112 -445 159 -710 158 -93 -1 -210 -7 -258 -15z m566 -83
c410 -88 775 -335 1003 -677 202 -303 299 -680 265 -1025 -35 -361 -162 -660
-394 -927 -525 -605 -1437 -716 -2087 -255 -117 83 -284 248 -373 368 -150
203 -259 469 -297 728 -17 118 -15 355 5 472 117 688 649 1219 1334 1330 128
21 417 14 544 -14z"/>
<path d="M27057 8659 c-416 -46 -753 -261 -879 -560 -47 -112 -62 -206 -55
-349 15 -319 133 -508 393 -631 144 -68 311 -104 649 -139 602 -63 783 -117
943 -283 102 -107 148 -226 159 -407 7 -138 -12 -235 -71 -355 -57 -115 -132
-206 -236 -284 -336 -253 -827 -312 -1234 -148 -189 75 -344 190 -432 318 -75
107 -97 166 -130 336 -4 19 -9 22 -37 16 -17 -3 -33 -7 -35 -8 -7 -6 22 -145
42 -201 54 -149 179 -306 321 -401 441 -296 1046 -295 1507 2 151 98 281 262
342 433 29 83 31 94 31 242 0 180 -12 237 -77 370 -31 65 -58 102 -112 155
-165 163 -402 232 -976 285 -291 26 -494 71 -640 142 -109 54 -220 161 -267
258 -89 184 -96 449 -18 627 58 130 193 275 333 357 221 129 536 190 797 153
429 -61 715 -280 793 -607 17 -71 17 -71 46 -66 16 4 32 8 34 11 8 8 -19 116
-46 183 -52 133 -174 280 -301 366 -217 146 -544 218 -844 185z"/>
<path d="M30010 8650 c-190 -36 -351 -91 -500 -172 -275 -149 -519 -394 -672
-673 -310 -566 -269 -1255 105 -1777 275 -385 664 -622 1129 -689 108 -15 431
-6 538 16 173 35 401 123 535 207 184 116 370 291 498 469 79 111 185 317 226
444 242 737 -55 1542 -724 1963 -155 97 -407 188 -597 216 -146 22 -413 20
-538 -4z m531 -71 c647 -108 1159 -597 1297 -1239 78 -362 34 -715 -133 -1055
-184 -374 -520 -668 -913 -799 -294 -98 -584 -110 -878 -36 -291 73 -527 209
-744 429 -276 279 -428 613 -461 1013 -27 323 55 657 231 943 148 241 402 477
647 599 150 75 331 132 488 155 117 17 335 12 466 -10z"/>
<path d="M15750 8595 l0 -35 500 0 501 0 -4 -1012 c-3 -1006 -3 -1014 -25
-1111 -57 -248 -156 -432 -321 -594 -247 -244 -617 -375 -1111 -396 l-55 -2 0
-35 0 -35 105 2 c281 6 571 76 795 189 353 181 565 459 657 862 22 96 22 106
25 1150 l4 1052 -536 0 -535 0 0 -35z"/>
<path d="M20830 7000 l0 -1631 33 3 32 3 3 808 2 807 1020 0 1020 0 0 -810 0
-810 35 0 35 0 0 1630 0 1630 -35 0 -35 0 0 -785 0 -785 -1020 0 -1020 0 -2
783 -3 782 -32 3 -33 3 0 -1631z"/>
<path d="M23450 7001 l0 -1631 35 0 35 0 2 1552 3 1551 560 -809 c1756 -2540
1582 -2294 1621 -2294 l34 0 0 1630 0 1630 -35 0 -35 0 -2 -1557 -3 -1557
-487 704 c-268 388 -752 1088 -1075 1555 -560 809 -590 850 -621 853 l-32 3 0
-1630z"/>
<path d="M32300 7001 l0 -1631 35 0 35 0 2 1551 3 1552 317 -459 c1883 -2725
1822 -2639 1861 -2642 l37 -3 0 1630 0 1631 -35 0 -35 0 0 -1561 0 -1562 -767
1109 c-422 610 -907 1312 -1078 1559 -292 422 -313 450 -343 453 l-32 3 0
-1630z"/>
<path d="M15830 3374 c-267 -71 -464 -307 -489 -582 -14 -163 17 -315 91 -440
18 -31 67 -91 108 -132 204 -205 509 -245 798 -103 74 36 97 59 86 87 -11 28
-34 24 -127 -23 -109 -56 -191 -76 -302 -75 -274 1 -491 173 -561 444 -22 85
-22 244 1 330 54 208 217 373 420 425 138 35 314 10 454 -67 78 -42 105 -45
117 -13 4 9 -1 24 -11 35 -27 30 -154 88 -240 110 -95 24 -262 26 -345 4z"/>
<path d="M17916 3374 c-150 -36 -305 -159 -379 -301 -137 -262 -104 -622 78
-835 69 -82 176 -150 290 -184 90 -28 277 -26 370 3 204 64 354 227 417 450
28 101 30 293 4 398 -47 191 -167 347 -326 423 -47 22 -109 45 -138 51 -73 15
-245 12 -316 -5z m289 -69 c156 -33 289 -133 358 -271 162 -321 53 -735 -228
-869 -86 -41 -152 -55 -257 -55 -258 0 -456 158 -525 420 -24 89 -23 282 1
369 83 305 348 470 651 406z"/>
<path d="M22300 3371 c-147 -47 -227 -129 -251 -254 -19 -104 12 -205 84 -277
57 -56 97 -79 267 -145 244 -96 298 -130 347 -213 22 -38 27 -58 28 -116 0
-60 -4 -78 -27 -117 -52 -89 -162 -139 -302 -139 -141 0 -252 43 -355 137 -33
29 -66 53 -75 53 -9 0 -22 -12 -28 -26 -12 -26 -10 -30 52 -86 89 -82 199
-135 313 -150 216 -29 405 50 479 200 19 39 23 62 22 137 0 106 -21 159 -89
230 -51 52 -102 79 -285 150 -230 89 -290 127 -329 209 -27 54 -28 145 -2 202
37 82 142 139 274 150 123 11 238 -29 327 -112 49 -46 68 -52 88 -32 47 47
-78 158 -227 202 -75 22 -238 21 -311 -3z"/>
<path d="M34032 3370 c-106 -28 -207 -85 -287 -161 -126 -120 -192 -269 -202
-454 -16 -287 122 -535 359 -649 121 -58 180 -71 313 -71 126 1 202 17 312 69
120 57 113 37 113 317 0 146 -4 248 -10 260 -10 18 -23 19 -219 19 -178 0
-210 -2 -222 -16 -9 -11 -10 -20 -2 -32 9 -15 35 -17 192 -20 l181 -2 0 -214
0 -213 -67 -31 c-248 -114 -525 -71 -703 108 -181 182 -222 479 -101 725 140
283 498 393 809 249 58 -26 78 -31 93 -23 52 28 -4 81 -132 126 -104 36 -318
43 -427 13z"/>
<path d="M19887 3368 c-16 -8 -17 -59 -17 -659 0 -592 1 -650 16 -656 9 -3 24
-2 33 4 14 9 17 70 21 587 l5 578 429 -586 c274 -376 434 -586 445 -586 41 0
41 -1 41 667 0 616 -1 643 -19 652 -13 7 -23 7 -35 -2 -14 -11 -16 -68 -18
-592 l-3 -580 -430 587 c-236 323 -435 589 -441 592 -5 2 -18 0 -27 -6z"/>
<path d="M24026 3367 c-16 -12 -17 -46 -14 -482 3 -455 4 -472 25 -528 83
-219 314 -357 535 -319 160 28 295 130 366 279 l37 78 3 480 c3 439 1 481 -14
492 -11 8 -22 9 -35 3 -17 -10 -18 -38 -21 -478 l-3 -467 -32 -68 c-43 -89
-119 -169 -202 -210 -61 -30 -72 -32 -171 -32 -97 0 -110 2 -173 32 -85 40
-155 111 -199 200 l-33 68 -5 473 c-4 406 -7 474 -20 482 -20 13 -23 12 -44
-3z"/>
<path d="M26248 3369 c-17 -9 -18 -51 -18 -652 0 -487 3 -646 12 -655 17 -17
729 -17 746 0 18 18 14 46 -7 58 -13 6 -140 10 -345 10 l-326 0 0 609 c0 541
-2 611 -16 625 -18 19 -23 19 -46 5z"/>
<path d="M27978 3369 c-24 -13 -23 -46 1 -59 12 -6 104 -10 230 -10 l211 0 0
-614 c0 -659 -1 -647 50 -631 20 6 20 10 20 626 l0 619 214 0 c118 0 221 3
230 6 22 9 20 51 -3 64 -27 14 -929 13 -953 -1z"/>
<path d="M30090 3360 c-20 -20 -20 -31 -20 -646 0 -412 4 -632 10 -645 12 -21
40 -25 58 -7 9 9 12 168 12 655 0 630 0 643 -20 653 -15 8 -24 6 -40 -10z"/>
<path d="M31417 3368 c-16 -8 -17 -59 -17 -659 0 -592 1 -650 16 -656 9 -3 24
-2 33 4 14 9 17 70 21 587 l5 578 429 -586 c274 -376 434 -586 445 -586 41 0
41 -1 41 667 0 616 -1 643 -19 652 -13 7 -23 7 -35 -2 -14 -11 -16 -68 -18
-592 l-3 -580 -430 587 c-236 323 -435 589 -441 592 -5 2 -18 0 -27 -6z"/>
</g>
</svg>
